<svg xmlns="http://www.w3.org/2000/svg" viewBox="0 0 1200 800" width="1200" height="800"><defs><linearGradient id="g" x1="0" y1="0" x2="0.4" y2="1"><stop offset="0" stop-color="#C98A55"/><stop offset="1" stop-color="#8A5530"/></linearGradient></defs><rect width="1200" height="800" fill="url(#g)"/><circle cx="930" cy="300" r="96" fill="#FFF0DC" opacity="0.55"/><path d="M0 620 C 220 520, 420 560, 620 600 S 1000 520, 1200 590 V800 H0 Z" fill="#FFF0DC" opacity="0.35"/><path d="M0 700 C 260 620, 520 660, 760 690 S 1060 640, 1200 680 V800 H0 Z" fill="#FFF0DC" opacity="0.6"/><path d="M86.232421875 84.4453125H83.439453125V100.0H86.232421875Z M103.59765625 88.720703125H106.283203125C106.240234375 86.099609375 104.005859375 84.23046875 100.697265625 84.23046875C97.431640625 84.23046875 94.982421875 86.056640625 94.982421875 88.806640625C94.982421875 91.041015625 96.572265625 92.330078125 99.12890625 92.99609375L100.890625 93.447265625C102.56640625 93.876953125 103.705078125 94.392578125 103.705078125 95.6171875C103.705078125 96.94921875 102.4375 97.8515625 100.58984375 97.8515625C98.828125 97.8515625 97.453125 97.056640625 97.32421875 95.423828125H94.57421875C94.703125 98.49609375 96.98046875 100.236328125 100.611328125 100.236328125C104.349609375 100.236328125 106.498046875 98.3671875 106.498046875 95.638671875C106.498046875 92.931640625 104.263671875 91.70703125 101.943359375 91.169921875L100.482421875 90.783203125C99.193359375 90.482421875 97.818359375 89.9453125 97.818359375 88.634765625C97.818359375 87.474609375 98.892578125 86.615234375 100.654296875 86.615234375C102.330078125 86.615234375 103.46875 87.388671875 103.59765625 88.720703125Z M114.818359375 100.0H117.611328125V94.306640625H120.533203125L123.583984375 100.0H126.69921875L123.34765625 93.833984375C125.173828125 93.0927734375 126.140625 91.5244140625 126.140625 89.408203125C126.140625 86.443359375 124.228515625 84.4453125 120.662109375 84.4453125H114.818359375ZM117.611328125 91.96484375V86.787109375H120.232421875C122.337890625 86.787109375 123.283203125 87.75390625 123.283203125 89.408203125C123.283203125 91.0625 122.337890625 91.96484375 120.232421875 91.96484375Z M136.5234375 100.0 137.8125 96.154296875H143.677734375L144.966796875 100.0H147.953125L142.453125 84.4453125H139.015625L133.537109375 100.0ZM138.564453125 93.8984375 140.669921875 87.625H140.798828125L142.92578125 93.8984375Z M155.80078125 100.0H165.962890625V97.63671875H158.59375V93.3828125H165.3828125V91.041015625H158.59375V86.787109375H165.919921875V84.4453125H155.80078125Z M174.60546875 100.0H184.2734375V97.63671875H177.3984375V84.4453125H174.60546875Z M203.9803125 86.787109375H208.7928125V100.0H211.58578125V86.787109375H216.376796875V84.4453125H203.9803125Z M238.447109375 92.22265625C238.447109375 87.1953125 235.396328125 84.23046875 231.314296875 84.23046875C227.232265625 84.23046875 224.181484375 87.1953125 224.181484375 92.22265625C224.181484375 97.228515625 227.232265625 100.21484375 231.314296875 100.21484375C235.396328125 100.21484375 238.447109375 97.25 238.447109375 92.22265625ZM235.63265625 92.22265625C235.63265625 95.767578125 233.849453125 97.701171875 231.314296875 97.701171875C228.779140625 97.701171875 226.9959375 95.767578125 226.9959375 92.22265625C226.9959375 88.677734375 228.779140625 86.744140625 231.314296875 86.744140625C233.849453125 86.744140625 235.63265625 88.677734375 235.63265625 92.22265625Z M252.224453125 100.0C256.95101562499997 100.0 259.76546874999997 97.056640625 259.76546874999997 92.201171875C259.76546874999997 87.3671875 256.95101562499997 84.4453125 252.310390625 84.4453125H246.939296875V100.0ZM249.732265625 97.572265625V86.873046875H252.16C255.318203125 86.873046875 256.97249999999997 88.634765625 256.97249999999997 92.201171875C256.97249999999997 95.7890625 255.318203125 97.572265625 252.0740625 97.572265625Z M270.21273437499997 100.0 271.50179687499997 96.154296875H277.36703124999997L278.65609374999997 100.0H281.64242187499997L276.14242187499997 84.4453125H272.70492187499997L267.22640624999997 100.0ZM272.25374999999997 93.8984375 274.35921874999997 87.625H274.48812499999997L276.61507812499997 93.8984375Z M288.41585937499997 84.4453125 294.08773437499997 94.177734375V100.0H296.88070312499997V94.177734375L302.53109374999997 84.4453125H299.37289062499997L295.54867187499997 91.3203125H295.39828124999997L291.57406249999997 84.4453125Z" fill="#FFF0DC" opacity="0.75"/><rect x="82" y="120" width="64" height="4" fill="#C9A55A"/><path d="M107.625 117.625C94.875 117.625 86.5625 121.9375 86.5625 129.0C86.5625 136.0 94.875 140.25 107.625 140.1875C120.5 140.25 128.625 136.0 128.6875 129.0C128.625 121.9375 120.5 117.625 107.625 117.625ZM107.625 124.625C115.125 124.5625 119.375 126.0 119.375 129.0C119.375 131.875 115.125 133.25 107.625 133.25C100.0625 133.25 95.875 131.875 95.9375 129.0C95.875 126.0 100.0625 124.5625 107.625 124.625ZM127.5625 153.625H87.5V173.375H127.5625ZM96.3125 160.6875H118.8125V166.1875H96.3125ZM133.8125 143.0H81.5V150.125H133.8125Z M157.8125 124.6875V119.25H148.4375V124.6875C148.4375 131.625 144.8125 138.875 134.875 141.9375L139.3125 149.0C146.0625 146.96875 150.5625 142.71875 153.1875 137.375C155.71875 142.3125 160.0625 146.125 166.5 148.125L170.9375 141.0625C161.25 138.25 157.75 131.5 157.8125 124.6875ZM183.5 153.125H143.875V160.25H174.5V174.0H183.5ZM183.5 116.625H174.5V150.75H183.5Z M213.35750000000002 153.8125C216.35750000000002 153.8125 218.98250000000002 151.3125 219.04500000000002 148.125C218.98250000000002 145.0625 216.35750000000002 142.5625 213.35750000000002 142.5625C210.23250000000002 142.5625 207.67000000000002 145.0625 207.73250000000002 148.125C207.67000000000002 151.3125 210.23250000000002 153.8125 213.35750000000002 153.8125Z M257.90250000000003 126.5V120.125H249.09000000000003V126.5C249.09000000000003 132.875 246.27750000000003 139.8125 238.09000000000003 143.4375L242.90250000000003 150.375C248.12125000000003 148.25 251.59000000000003 144.3125 253.65250000000003 139.5625C255.68375000000003 143.53125 258.90250000000003 146.6875 263.59000000000003 148.5L267.84000000000003 142.3125V149.875H276.15250000000003V137.5H280.02750000000003V151.6875H288.59000000000003V116.6875H280.02750000000003V130.25H276.15250000000003V117.6875H267.84000000000003V141.375C260.59000000000003 138.34375 257.84000000000003 132.5 257.90250000000003 126.5ZM268.77750000000003 152.25C256.59000000000003 152.25 248.71500000000003 156.375 248.77750000000003 163.125C248.71500000000003 169.875 256.59000000000003 174.0625 268.77750000000003 174.0C280.96500000000003 174.0625 288.84000000000003 169.875 288.90250000000003 163.125C288.84000000000003 156.375 280.96500000000003 152.25 268.77750000000003 152.25ZM268.77750000000003 159.0C275.84000000000003 158.9375 279.77750000000003 160.3125 279.84000000000003 163.125C279.77750000000003 165.9375 275.84000000000003 167.25 268.77750000000003 167.25C261.71500000000003 167.25 257.71500000000003 165.9375 257.77750000000003 163.125C257.71500000000003 160.3125 261.71500000000003 158.9375 268.77750000000003 159.0Z M339.15250000000003 116.625H330.15250000000003V150.375H339.15250000000003V137.3125H346.09000000000003V129.8125H339.15250000000003ZM339.15250000000003 152.25H299.84000000000003V158.125H330.15250000000003V160.125H299.90250000000003V173.6875H340.96500000000003V167.75H308.90250000000003V165.5H339.15250000000003ZM292.21500000000003 143.9375 293.15250000000003 150.0C303.09000000000003 150.0 316.21500000000003 149.9375 328.40250000000003 147.875L327.77750000000003 142.375C323.55875000000003 142.90625 319.05875000000003 143.28125 314.59000000000003 143.5V141.5625C320.62125000000003 140.75 324.27750000000003 138.1875 324.27750000000003 134.1875C324.27750000000003 129.5625 318.71500000000003 126.8125 310.02750000000003 126.8125C301.34000000000003 126.8125 295.77750000000003 129.5625 295.77750000000003 134.1875C295.77750000000003 138.25 299.52750000000003 140.8125 305.65250000000003 141.625V143.8125C300.87125000000003 143.9375 296.27750000000003 143.9375 292.21500000000003 143.9375ZM326.40250000000003 120.0H314.59000000000003V116.1875H305.65250000000003V120.0H293.71500000000003V125.9375H326.40250000000003ZM310.02750000000003 132.3125C313.65250000000003 132.3125 315.65250000000003 132.8125 315.65250000000003 134.1875C315.65250000000003 135.625 313.65250000000003 136.3125 310.02750000000003 136.3125C306.34000000000003 136.3125 304.40250000000003 135.625 304.40250000000003 134.1875C304.40250000000003 132.8125 306.34000000000003 132.3125 310.02750000000003 132.3125Z" fill="#FFFFFF"/><path d="M1110.00 58.00 L1139.44 109.00 L1080.56 109.00 Z M1110.00 126.00 L1080.56 75.00 L1139.44 75.00 Z" fill="none" stroke="#FFF0DC" stroke-width="5" opacity="0.5" stroke-linejoin="round"/></svg>