<svg xmlns="http://www.w3.org/2000/svg" viewBox="0 0 1200 800" width="1200" height="800"><defs><linearGradient id="g" x1="0" y1="0" x2="0.4" y2="1"><stop offset="0" stop-color="#0A2A5E"/><stop offset="1" stop-color="#061A3D"/></linearGradient></defs><rect width="1200" height="800" fill="url(#g)"/><rect x="0" y="690" width="1200" height="800" fill="#7FA6E0" opacity="0.9"/><rect x="0" y="674" width="26" height="22" fill="#7FA6E0" opacity="0.9"/><rect x="46" y="674" width="26" height="22" fill="#7FA6E0" opacity="0.9"/><rect x="92" y="674" width="26" height="22" fill="#7FA6E0" opacity="0.9"/><rect x="138" y="674" width="26" height="22" fill="#7FA6E0" opacity="0.9"/><rect x="184" y="674" width="26" height="22" fill="#7FA6E0" opacity="0.9"/><rect x="230" y="674" width="26" height="22" fill="#7FA6E0" opacity="0.9"/><rect x="276" y="674" width="26" height="22" fill="#7FA6E0" opacity="0.9"/><rect x="322" y="674" width="26" height="22" fill="#7FA6E0" opacity="0.9"/><rect x="368" y="674" width="26" height="22" fill="#7FA6E0" opacity="0.9"/><rect x="414" y="674" width="26" height="22" fill="#7FA6E0" opacity="0.9"/><rect x="460" y="674" width="26" height="22" fill="#7FA6E0" opacity="0.9"/><rect x="506" y="674" width="26" height="22" fill="#7FA6E0" opacity="0.9"/><rect x="552" y="674" width="26" height="22" fill="#7FA6E0" opacity="0.9"/><rect x="598" y="674" width="26" height="22" fill="#7FA6E0" opacity="0.9"/><rect x="644" y="674" width="26" height="22" fill="#7FA6E0" opacity="0.9"/><rect x="690" y="674" width="26" height="22" fill="#7FA6E0" opacity="0.9"/><rect x="736" y="674" width="26" height="22" fill="#7FA6E0" opacity="0.9"/><rect x="782" y="674" width="26" height="22" fill="#7FA6E0" opacity="0.9"/><rect x="828" y="674" width="26" height="22" fill="#7FA6E0" opacity="0.9"/><rect x="874" y="674" width="26" height="22" fill="#7FA6E0" opacity="0.9"/><rect x="920" y="674" width="26" height="22" fill="#7FA6E0" opacity="0.9"/><rect x="966" y="674" width="26" height="22" fill="#7FA6E0" opacity="0.9"/><rect x="1012" y="674" width="26" height="22" fill="#7FA6E0" opacity="0.9"/><rect x="1058" y="674" width="26" height="22" fill="#7FA6E0" opacity="0.9"/><rect x="1104" y="674" width="26" height="22" fill="#7FA6E0" opacity="0.9"/><rect x="1150" y="674" width="26" height="22" fill="#7FA6E0" opacity="0.9"/><rect x="1196" y="674" width="26" height="22" fill="#7FA6E0" opacity="0.9"/><rect x="80" y="640" width="157" height="50" fill="#7FA6E0"/><rect x="256" y="558" width="32" height="132" fill="#7FA6E0"/><path d="M250 558 L272.0 518 L294 558 Z" fill="#7FA6E0"/><rect x="348" y="661.8" width="94" height="33.2" fill="#7FA6E0"/><path d="M348 663.8 A47 47 0 0 1 442 663.8 Z" fill="#7FA6E0"/><rect x="485" y="625" width="144" height="65" fill="#7FA6E0"/><rect x="667" y="623" width="151" height="67" fill="#7FA6E0"/><rect x="858" y="644.4" width="152" height="50.6" fill="#7FA6E0"/><path d="M858 646.4 A76 76 0 0 1 1010 646.4 Z" fill="#7FA6E0"/><rect x="1069" y="508" width="43" height="182" fill="#7FA6E0"/><path d="M1063 508 L1090.5 468 L1118 508 Z" fill="#7FA6E0"/><path d="M86.232421875 84.4453125H83.439453125V100.0H86.232421875Z M103.59765625 88.720703125H106.283203125C106.240234375 86.099609375 104.005859375 84.23046875 100.697265625 84.23046875C97.431640625 84.23046875 94.982421875 86.056640625 94.982421875 88.806640625C94.982421875 91.041015625 96.572265625 92.330078125 99.12890625 92.99609375L100.890625 93.447265625C102.56640625 93.876953125 103.705078125 94.392578125 103.705078125 95.6171875C103.705078125 96.94921875 102.4375 97.8515625 100.58984375 97.8515625C98.828125 97.8515625 97.453125 97.056640625 97.32421875 95.423828125H94.57421875C94.703125 98.49609375 96.98046875 100.236328125 100.611328125 100.236328125C104.349609375 100.236328125 106.498046875 98.3671875 106.498046875 95.638671875C106.498046875 92.931640625 104.263671875 91.70703125 101.943359375 91.169921875L100.482421875 90.783203125C99.193359375 90.482421875 97.818359375 89.9453125 97.818359375 88.634765625C97.818359375 87.474609375 98.892578125 86.615234375 100.654296875 86.615234375C102.330078125 86.615234375 103.46875 87.388671875 103.59765625 88.720703125Z M114.818359375 100.0H117.611328125V94.306640625H120.533203125L123.583984375 100.0H126.69921875L123.34765625 93.833984375C125.173828125 93.0927734375 126.140625 91.5244140625 126.140625 89.408203125C126.140625 86.443359375 124.228515625 84.4453125 120.662109375 84.4453125H114.818359375ZM117.611328125 91.96484375V86.787109375H120.232421875C122.337890625 86.787109375 123.283203125 87.75390625 123.283203125 89.408203125C123.283203125 91.0625 122.337890625 91.96484375 120.232421875 91.96484375Z M136.5234375 100.0 137.8125 96.154296875H143.677734375L144.966796875 100.0H147.953125L142.453125 84.4453125H139.015625L133.537109375 100.0ZM138.564453125 93.8984375 140.669921875 87.625H140.798828125L142.92578125 93.8984375Z M155.80078125 100.0H165.962890625V97.63671875H158.59375V93.3828125H165.3828125V91.041015625H158.59375V86.787109375H165.919921875V84.4453125H155.80078125Z M174.60546875 100.0H184.2734375V97.63671875H177.3984375V84.4453125H174.60546875Z M203.9803125 86.787109375H208.7928125V100.0H211.58578125V86.787109375H216.376796875V84.4453125H203.9803125Z M238.447109375 92.22265625C238.447109375 87.1953125 235.396328125 84.23046875 231.314296875 84.23046875C227.232265625 84.23046875 224.181484375 87.1953125 224.181484375 92.22265625C224.181484375 97.228515625 227.232265625 100.21484375 231.314296875 100.21484375C235.396328125 100.21484375 238.447109375 97.25 238.447109375 92.22265625ZM235.63265625 92.22265625C235.63265625 95.767578125 233.849453125 97.701171875 231.314296875 97.701171875C228.779140625 97.701171875 226.9959375 95.767578125 226.9959375 92.22265625C226.9959375 88.677734375 228.779140625 86.744140625 231.314296875 86.744140625C233.849453125 86.744140625 235.63265625 88.677734375 235.63265625 92.22265625Z M252.224453125 100.0C256.95101562499997 100.0 259.76546874999997 97.056640625 259.76546874999997 92.201171875C259.76546874999997 87.3671875 256.95101562499997 84.4453125 252.310390625 84.4453125H246.939296875V100.0ZM249.732265625 97.572265625V86.873046875H252.16C255.318203125 86.873046875 256.97249999999997 88.634765625 256.97249999999997 92.201171875C256.97249999999997 95.7890625 255.318203125 97.572265625 252.0740625 97.572265625Z M270.21273437499997 100.0 271.50179687499997 96.154296875H277.36703124999997L278.65609374999997 100.0H281.64242187499997L276.14242187499997 84.4453125H272.70492187499997L267.22640624999997 100.0ZM272.25374999999997 93.8984375 274.35921874999997 87.625H274.48812499999997L276.61507812499997 93.8984375Z M288.41585937499997 84.4453125 294.08773437499997 94.177734375V100.0H296.88070312499997V94.177734375L302.53109374999997 84.4453125H299.37289062499997L295.54867187499997 91.3203125H295.39828124999997L291.57406249999997 84.4453125Z" fill="#7FA6E0" opacity="0.75"/><rect x="82" y="120" width="64" height="4" fill="#C9A55A"/><path d="M130.0625 116.625H121.125V130.3125H113.0V137.5625H121.125V150.6875H130.0625ZM110.25 151.75C98.0 151.75 90.4375 155.875 90.4375 162.9375C90.4375 169.9375 98.0 174.125 110.25 174.125C122.625 174.125 130.1875 169.9375 130.25 162.9375C130.1875 155.875 122.625 151.75 110.25 151.75ZM110.25 158.5625C117.5625 158.5625 121.25 159.9375 121.3125 162.9375C121.25 165.9375 117.5625 167.25 110.25 167.25C103.0625 167.25 99.375 165.9375 99.375 162.9375C99.375 159.9375 103.0625 158.5625 110.25 158.5625ZM114.625 119.875H83.5V127.0625H94.5C94.03125 133.75 90.21875 140.75 80.9375 143.75L85.625 150.875C92.3125 148.625 96.75 144.15625 99.25 138.625C101.75 143.5 105.9375 147.4375 112.1875 149.4375L116.5625 142.375C107.875 139.53125 104.1875 133.21875 103.75 127.0625H114.625Z M183.4375 116.625H174.4375V174.0H183.4375ZM158.125 134.375V132.9375H169.5625V125.8125H158.0625V118.0H149.125V125.8125H137.375V132.9375H149.125V134.375C149.125 142.6875 145.0625 152.3125 135.3125 156.5L140.0625 163.4375C146.6875 160.75 151.1875 155.15625 153.75 148.5C156.3125 154.75 160.71875 159.96875 167.1875 162.5625L172.0 155.6875C162.1875 151.6875 158.125 142.25 158.125 134.375Z M213.35750000000002 153.8125C216.35750000000002 153.8125 218.98250000000002 151.3125 219.04500000000002 148.125C218.98250000000002 145.0625 216.35750000000002 142.5625 213.35750000000002 142.5625C210.23250000000002 142.5625 207.67000000000002 145.0625 207.73250000000002 148.125C207.67000000000002 151.3125 210.23250000000002 153.8125 213.35750000000002 153.8125Z M257.65250000000003 119.9375C248.59000000000003 119.9375 241.59000000000003 125.875 241.59000000000003 134.1875C241.59000000000003 141.125 246.37125000000003 146.3125 253.15250000000003 147.9375V155.375C248.18375000000003 155.53125 243.46500000000003 155.5625 239.40250000000003 155.5625L240.40250000000003 162.75C250.34000000000003 162.75 263.77750000000003 162.625 276.34000000000003 160.25L275.65250000000003 153.75C271.30875000000003 154.34375 266.71500000000003 154.75 262.15250000000003 155.0V147.9375C268.93375000000003 146.34375 273.65250000000003 141.125 273.71500000000003 134.1875C273.65250000000003 125.875 266.77750000000003 119.9375 257.65250000000003 119.9375ZM257.65250000000003 127.625C261.77750000000003 127.625 264.90250000000003 129.875 264.96500000000003 134.1875C264.90250000000003 138.375 261.77750000000003 140.8125 257.65250000000003 140.75C253.65250000000003 140.8125 250.52750000000003 138.375 250.52750000000003 134.1875C250.52750000000003 129.875 253.65250000000003 127.625 257.65250000000003 127.625ZM287.65250000000003 116.625H278.71500000000003V174.125H287.65250000000003Z M340.96500000000003 121.3125H298.02750000000003V128.4375H331.90250000000003C331.90250000000003 134.84375 331.74625000000003 142.4375 329.96500000000003 152.6875L338.84000000000003 153.4375C340.96500000000003 141.625 340.96500000000003 133.5625 340.96500000000003 126.6875ZM345.27750000000003 160.0625H326.71500000000003V142.25H317.84000000000003V160.0625H312.46500000000003V142.25H303.52750000000003V160.0625H292.96500000000003V167.3125H345.27750000000003Z" fill="#FFFFFF"/><path d="M1110.00 58.00 L1139.44 109.00 L1080.56 109.00 Z M1110.00 126.00 L1080.56 75.00 L1139.44 75.00 Z" fill="none" stroke="#7FA6E0" stroke-width="5" opacity="0.5" stroke-linejoin="round"/></svg>