<svg xmlns="http://www.w3.org/2000/svg" viewBox="0 0 1200 800" width="1200" height="800"><defs><linearGradient id="g" x1="0" y1="0" x2="0.4" y2="1"><stop offset="0" stop-color="#3E7148"/><stop offset="1" stop-color="#24452C"/></linearGradient></defs><rect width="1200" height="800" fill="url(#g)"/><path d="M180 690 C 420 520, 700 470, 1060 300" fill="none" stroke="#C9A55A" stroke-width="10" opacity="0.8"/><ellipse cx="158" cy="672" rx="44" ry="15" fill="#C9A55A" opacity="0.75" transform="rotate(-90 158 672)"/><ellipse cx="202" cy="672" rx="44" ry="15" fill="#C9A55A" opacity="0.75" transform="rotate(20 202 672)"/><ellipse cx="217" cy="632" rx="44" ry="15" fill="#C9A55A" opacity="0.75" transform="rotate(-90 217 632)"/><ellipse cx="261" cy="632" rx="44" ry="15" fill="#C9A55A" opacity="0.75" transform="rotate(20 261 632)"/><ellipse cx="275" cy="597" rx="44" ry="15" fill="#C9A55A" opacity="0.75" transform="rotate(-90 275 597)"/><ellipse cx="319" cy="597" rx="44" ry="15" fill="#C9A55A" opacity="0.75" transform="rotate(20 319 597)"/><ellipse cx="334" cy="563" rx="44" ry="15" fill="#C9A55A" opacity="0.75" transform="rotate(-90 334 563)"/><ellipse cx="378" cy="563" rx="44" ry="15" fill="#C9A55A" opacity="0.75" transform="rotate(20 378 563)"/><ellipse cx="393" cy="532" rx="44" ry="15" fill="#C9A55A" opacity="0.75" transform="rotate(-90 393 532)"/><ellipse cx="437" cy="532" rx="44" ry="15" fill="#C9A55A" opacity="0.75" transform="rotate(20 437 532)"/><ellipse cx="451" cy="502" rx="44" ry="15" fill="#C9A55A" opacity="0.75" transform="rotate(-90 451 502)"/><ellipse cx="495" cy="502" rx="44" ry="15" fill="#C9A55A" opacity="0.75" transform="rotate(20 495 502)"/><ellipse cx="510" cy="473" rx="44" ry="15" fill="#C9A55A" opacity="0.75" transform="rotate(-90 510 473)"/><ellipse cx="554" cy="473" rx="44" ry="15" fill="#C9A55A" opacity="0.75" transform="rotate(20 554 473)"/><ellipse cx="569" cy="446" rx="44" ry="15" fill="#C9A55A" opacity="0.75" transform="rotate(-90 569 446)"/><ellipse cx="613" cy="446" rx="44" ry="15" fill="#C9A55A" opacity="0.75" transform="rotate(20 613 446)"/><ellipse cx="627" cy="421" rx="44" ry="15" fill="#C9A55A" opacity="0.75" transform="rotate(-90 627 421)"/><ellipse cx="671" cy="421" rx="44" ry="15" fill="#C9A55A" opacity="0.75" transform="rotate(20 671 421)"/><ellipse cx="686" cy="397" rx="44" ry="15" fill="#C9A55A" opacity="0.75" transform="rotate(-90 686 397)"/><ellipse cx="730" cy="397" rx="44" ry="15" fill="#C9A55A" opacity="0.75" transform="rotate(20 730 397)"/><ellipse cx="745" cy="374" rx="44" ry="15" fill="#C9A55A" opacity="0.75" transform="rotate(-90 745 374)"/><ellipse cx="789" cy="374" rx="44" ry="15" fill="#C9A55A" opacity="0.75" transform="rotate(20 789 374)"/><ellipse cx="803" cy="353" rx="44" ry="15" fill="#C9A55A" opacity="0.75" transform="rotate(-90 803 353)"/><ellipse cx="847" cy="353" rx="44" ry="15" fill="#C9A55A" opacity="0.75" transform="rotate(20 847 353)"/><ellipse cx="862" cy="333" rx="44" ry="15" fill="#C9A55A" opacity="0.75" transform="rotate(-90 862 333)"/><ellipse cx="906" cy="333" rx="44" ry="15" fill="#C9A55A" opacity="0.75" transform="rotate(20 906 333)"/><ellipse cx="921" cy="314" rx="44" ry="15" fill="#C9A55A" opacity="0.75" transform="rotate(-90 921 314)"/><ellipse cx="965" cy="314" rx="44" ry="15" fill="#C9A55A" opacity="0.75" transform="rotate(20 965 314)"/><ellipse cx="979" cy="295" rx="44" ry="15" fill="#C9A55A" opacity="0.75" transform="rotate(-90 979 295)"/><ellipse cx="1023" cy="295" rx="44" ry="15" fill="#C9A55A" opacity="0.75" transform="rotate(20 1023 295)"/><ellipse cx="1038" cy="278" rx="44" ry="15" fill="#C9A55A" opacity="0.75" transform="rotate(-90 1038 278)"/><ellipse cx="1082" cy="278" rx="44" ry="15" fill="#C9A55A" opacity="0.75" transform="rotate(20 1082 278)"/><path d="M86.232421875 84.4453125H83.439453125V100.0H86.232421875Z M103.59765625 88.720703125H106.283203125C106.240234375 86.099609375 104.005859375 84.23046875 100.697265625 84.23046875C97.431640625 84.23046875 94.982421875 86.056640625 94.982421875 88.806640625C94.982421875 91.041015625 96.572265625 92.330078125 99.12890625 92.99609375L100.890625 93.447265625C102.56640625 93.876953125 103.705078125 94.392578125 103.705078125 95.6171875C103.705078125 96.94921875 102.4375 97.8515625 100.58984375 97.8515625C98.828125 97.8515625 97.453125 97.056640625 97.32421875 95.423828125H94.57421875C94.703125 98.49609375 96.98046875 100.236328125 100.611328125 100.236328125C104.349609375 100.236328125 106.498046875 98.3671875 106.498046875 95.638671875C106.498046875 92.931640625 104.263671875 91.70703125 101.943359375 91.169921875L100.482421875 90.783203125C99.193359375 90.482421875 97.818359375 89.9453125 97.818359375 88.634765625C97.818359375 87.474609375 98.892578125 86.615234375 100.654296875 86.615234375C102.330078125 86.615234375 103.46875 87.388671875 103.59765625 88.720703125Z M114.818359375 100.0H117.611328125V94.306640625H120.533203125L123.583984375 100.0H126.69921875L123.34765625 93.833984375C125.173828125 93.0927734375 126.140625 91.5244140625 126.140625 89.408203125C126.140625 86.443359375 124.228515625 84.4453125 120.662109375 84.4453125H114.818359375ZM117.611328125 91.96484375V86.787109375H120.232421875C122.337890625 86.787109375 123.283203125 87.75390625 123.283203125 89.408203125C123.283203125 91.0625 122.337890625 91.96484375 120.232421875 91.96484375Z M136.5234375 100.0 137.8125 96.154296875H143.677734375L144.966796875 100.0H147.953125L142.453125 84.4453125H139.015625L133.537109375 100.0ZM138.564453125 93.8984375 140.669921875 87.625H140.798828125L142.92578125 93.8984375Z M155.80078125 100.0H165.962890625V97.63671875H158.59375V93.3828125H165.3828125V91.041015625H158.59375V86.787109375H165.919921875V84.4453125H155.80078125Z M174.60546875 100.0H184.2734375V97.63671875H177.3984375V84.4453125H174.60546875Z M203.9803125 86.787109375H208.7928125V100.0H211.58578125V86.787109375H216.376796875V84.4453125H203.9803125Z M238.447109375 92.22265625C238.447109375 87.1953125 235.396328125 84.23046875 231.314296875 84.23046875C227.232265625 84.23046875 224.181484375 87.1953125 224.181484375 92.22265625C224.181484375 97.228515625 227.232265625 100.21484375 231.314296875 100.21484375C235.396328125 100.21484375 238.447109375 97.25 238.447109375 92.22265625ZM235.63265625 92.22265625C235.63265625 95.767578125 233.849453125 97.701171875 231.314296875 97.701171875C228.779140625 97.701171875 226.9959375 95.767578125 226.9959375 92.22265625C226.9959375 88.677734375 228.779140625 86.744140625 231.314296875 86.744140625C233.849453125 86.744140625 235.63265625 88.677734375 235.63265625 92.22265625Z M252.224453125 100.0C256.95101562499997 100.0 259.76546874999997 97.056640625 259.76546874999997 92.201171875C259.76546874999997 87.3671875 256.95101562499997 84.4453125 252.310390625 84.4453125H246.939296875V100.0ZM249.732265625 97.572265625V86.873046875H252.16C255.318203125 86.873046875 256.97249999999997 88.634765625 256.97249999999997 92.201171875C256.97249999999997 95.7890625 255.318203125 97.572265625 252.0740625 97.572265625Z M270.21273437499997 100.0 271.50179687499997 96.154296875H277.36703124999997L278.65609374999997 100.0H281.64242187499997L276.14242187499997 84.4453125H272.70492187499997L267.22640624999997 100.0ZM272.25374999999997 93.8984375 274.35921874999997 87.625H274.48812499999997L276.61507812499997 93.8984375Z M288.41585937499997 84.4453125 294.08773437499997 94.177734375V100.0H296.88070312499997V94.177734375L302.53109374999997 84.4453125H299.37289062499997L295.54867187499997 91.3203125H295.39828124999997L291.57406249999997 84.4453125Z" fill="#C9A55A" opacity="0.75"/><rect x="82" y="120" width="64" height="4" fill="#C9A55A"/><path d="M127.1875 116.625H118.0625V157.4375H127.1875V139.625H134.625V132.25H127.1875ZM111.5 120.875H83.5V128.1875H101.5625C100.25 135.5625 93.46875 141.71875 81.0 145.125L84.6875 152.1875C102.125 147.4375 111.5 136.625 111.5 120.875ZM128.9375 165.875H98.5625V153.25H89.4375V173.0625H128.9375Z M187.625 142.8125H135.3125V150.0H187.625ZM161.375 152.625C148.8125 152.625 141.1875 156.5625 141.1875 163.3125C141.1875 170.1875 148.8125 174.0625 161.375 174.0C173.875 174.0625 181.375 170.1875 181.375 163.3125C181.375 156.5625 173.875 152.625 161.375 152.625ZM161.375 159.5625C168.75 159.5625 172.375 160.6875 172.375 163.3125C172.375 166.0 168.75 167.0625 161.375 167.0625C153.8125 167.0625 150.3125 166.0 150.375 163.3125C150.3125 160.6875 153.8125 159.5625 161.375 159.5625ZM182.875 119.1875H140.0625V126.375H154.6875C153.125 129.78125 148.03125 133.21875 137.375 134.125L140.375 141.125C151.5625 140.125 158.40625 136.125 161.375 130.8125C164.375 136.15625 171.28125 140.125 182.5 141.125L185.625 134.125C174.71875 133.21875 169.65625 129.75 168.1875 126.375H182.875Z" fill="#FFFFFF"/><path d="M1110.00 58.00 L1139.44 109.00 L1080.56 109.00 Z M1110.00 126.00 L1080.56 75.00 L1139.44 75.00 Z" fill="none" stroke="#C9A55A" stroke-width="5" opacity="0.5" stroke-linejoin="round"/></svg>